<?xml version="1.0" encoding="utf-8"?>
<!-- Generator: Adobe Illustrator 25.2.3, SVG Export Plug-In . SVG Version: 6.00 Build 0)  -->
<svg version="1.1" id="Layer_1" xmlns="http://www.w3.org/2000/svg" xmlns:xlink="http://www.w3.org/1999/xlink" x="0px" y="0px"
	 viewBox="0 0 36 44" style="enable-background:new 0 0 36 44;" xml:space="preserve">
<style type="text/css">
	.st0{fill:#FFCA28;}
	.st1{fill:#0F1839;}
	.st2{fill:#EFBE8E;}
	.st3{fill:#EDAC77;}
	.st4{fill:#26120B;}
	.st5{fill:#E57505;}
	.st6{fill:#FB9319;}
	.st7{fill:#FFFFFF;}
	.st8{fill:#EA7206;}
	.st9{fill-rule:evenodd;clip-rule:evenodd;fill:#FFFFFF;}
	.st10{fill-rule:evenodd;clip-rule:evenodd;fill:#2B66B7;}
	.st11{fill:#2B0D04;}
	.st12{fill:#EAA96E;}
</style>
<path class="st0" d="M14.7,2.5l-0.1-0.8c0-0.1,0-0.2,0.1-0.4c0.1-0.1,0.2-0.2,0.3-0.2c1-0.4,3.7-1.3,6.9,0.1
	c0.1,0.1,0.2,0.2,0.3,0.3c0.1,0.1,0.1,0.3,0,0.4l-0.2,0.8"/>
<path class="st1" d="M34.7,39.7c-1.1-3.9-5.7-5.3-5.7-5.3l-7.3-2.7h-7.5L7,34.4c0,0-4.6,1.5-5.7,5.3l-1.1,4h35.7L34.7,39.7z"/>
<path class="st2" d="M24.2,24c0,0,4.3-0.4,3.6-3.4s-5.1,0.2-5.1,0.2L24.2,24z"/>
<path class="st2" d="M12.1,24c0,0-4.3-0.4-3.6-3.4c0.7-3,5.1,0.2,5.1,0.2L12.1,24z"/>
<path class="st3" d="M21.9,27.8h-7.8v4.7h7.8V27.8z"/>
<path class="st2" d="M26.2,22.7c-0.1,1.5-1,3-1.8,4.1c-2.1,3-3,4.3-6.1,4.3c-3,0-3.5-0.8-5.8-3.2c-1.2-1.2-1.8-2.8-2.3-4.2L10,22.1
	c-0.2-1.4-0.2-3.4-0.2-3.4c0-2.9,0.3-5.8,1.6-7.5c1.6-2.1,4.2-2.6,6.7-2.6c2.2,0,4.8,0.5,6.3,2.4c1.5,1.8,1.7,4.5,1.8,7.4
	c0,0.1,0,0.2,0,0.3C26.2,18.7,26.2,22.1,26.2,22.7z"/>
<path class="st4" d="M9.7,21l-0.8-2.2c0,0-1.8-3.7-0.5-7.6c0,0,0.7-3,3.6-3l-2,12.8c0,0,0,0.1-0.1,0.1c0,0-0.1,0-0.1,0.1
	C9.8,21.1,9.8,21.1,9.7,21C9.7,21,9.7,21,9.7,21z"/>
<path class="st4" d="M26.5,21l0.8-2.2c0,0,1.8-3.7,0.5-7.6c0,0-0.7-3-3.6-3l2,12.8c0,0,0,0.1,0.1,0.1s0.1,0,0.1,0
	C26.4,21.1,26.4,21.1,26.5,21C26.5,21,26.5,21,26.5,21z"/>
<path class="st5" d="M27.6,11.7c-4.5-1-9.6-0.6-9.6-0.6s-5-0.5-9.6,0.6c0,0-2.5,0.3-1.4,1.6c0,0,1.1,2,3.7,2.6c0,0,2,0.6,7.2,0.6
	c5.3,0,7.2-0.7,7.2-0.7c2.8-0.7,3.7-2.4,3.7-2.4C29.8,12,27.6,11.7,27.6,11.7z"/>
<path class="st6" d="M27.6,11.2c-4.5-1-9.6-0.6-9.6-0.6s-5-0.5-9.6,0.6c0,0-2.5,0.3-1.4,1.6c0,0,1.1,2,3.7,2.6c0,0,2,0.6,7.2,0.6
	c5.3,0,7.2-0.7,7.2-0.7c2.8-0.7,3.7-2.4,3.7-2.4C29.8,11.5,27.6,11.2,27.6,11.2z"/>
<path class="st6" d="M27.9,12.4C27.9,12.4,27.9,12.4,27.9,12.4C27.9,12.3,27.9,12.3,27.9,12.4c-0.1-5.9-4.5-10.6-9.8-10.6
	c-5.4,0-9.7,4.8-9.8,10.8h0.1c0.5,0.8,4.7,1.5,9.7,1.5s9.2-0.7,9.7-1.5h0.1C27.9,12.5,27.9,12.4,27.9,12.4z"/>
<path class="st7" d="M12.8,32.2c0,0,4.8,3.1,10.4-0.1l-1.3-0.6c0,0-4.2,1.4-8-0.2L12.8,32.2z"/>
<path class="st4" d="M18.2,26.3c-0.5,0.5-1.1,0.6-1.7,0.7c-0.2,0-0.4,0-0.6,0c-0.6-0.1-1.1-0.6-1.1-1.2l0.1,0.1
	c0.3,0.4,0.6,0.5,1,0.3c0.3-0.1,0.6-0.4,0.9-0.5c0.2-0.1,0.3-0.2,0.5-0.3c0.2-0.1,0.4-0.1,0.6-0.1c0.1,0,0.3,0.1,0.4,0.2
	c0.4-0.3,0.8-0.2,1.2,0c0.2,0.1,0.4,0.3,0.6,0.4c0.2,0.1,0.5,0.3,0.7,0.4c0.4,0.1,0.7,0,0.9-0.3c0,0,0-0.1,0.1-0.1
	c-0.1,0.7-0.6,1.2-1.2,1.2c-0.7,0.1-1.4-0.1-2-0.5C18.4,26.4,18.3,26.4,18.2,26.3z"/>
<path class="st1" d="M15.7,11.8c-1.8,0-3.7-0.6-4.9-1c-0.8-0.3-1.5-0.6-2.2-1l0.1-0.3c0,0,3.6,2.1,7,2.1V11.8z"/>
<path class="st1" d="M20.3,11.8v-0.3c3.4,0,7-2.1,7.1-2.1l0.1,0.3c-0.7,0.4-1.5,0.8-2.3,1.1C24,11.3,22.2,11.8,20.3,11.8z"/>
<path class="st1" d="M18.1,14.3c1.7,0,3-1.3,3-3c0-1.7-1.3-3-3-3c-1.7,0-3,1.3-3,3C15.1,12.9,16.5,14.3,18.1,14.3z"/>
<path class="st7" d="M18.1,13.9c1.5,0,2.6-1.2,2.6-2.6c0-1.5-1.2-2.6-2.6-2.6s-2.6,1.2-2.6,2.6C15.5,12.7,16.7,13.9,18.1,13.9z"/>
<path class="st6" d="M29.4,43.7H7.6L9,38h18.9L29.4,43.7z"/>
<path class="st0" d="M10,39c-0.1,0-0.3,0-0.4-0.1c-0.1-0.1-0.2-0.1-0.3-0.2c-0.1-0.1-0.2-0.2-0.2-0.3C9,38.3,9,38.1,9,38v-4.4l2-0.8
	V38c0,0.1,0,0.3-0.1,0.4c-0.1,0.1-0.1,0.2-0.2,0.3c-0.1,0.1-0.2,0.2-0.3,0.2C10.3,39,10.2,39,10,39z"/>
<path class="st0" d="M26.9,39c-0.3,0-0.5-0.1-0.7-0.3c-0.2-0.2-0.3-0.4-0.3-0.7v-4.8l2,0.8v4c0,0.1,0,0.3-0.1,0.4
	c-0.1,0.1-0.1,0.2-0.2,0.3c-0.1,0.1-0.2,0.2-0.3,0.2C27.2,39,27,39,26.9,39z"/>
<path class="st1" d="M10,38.7c0.2,0,0.4-0.2,0.4-0.4s-0.2-0.4-0.4-0.4c-0.2,0-0.4,0.2-0.4,0.4S9.8,38.7,10,38.7z"/>
<path class="st1" d="M26.9,38.7c0.2,0,0.4-0.2,0.4-0.4s-0.2-0.4-0.4-0.4c-0.2,0-0.4,0.2-0.4,0.4S26.7,38.7,26.9,38.7z"/>
<path class="st8" d="M14.2,2.6l0.5-0.3l1.6,5L14.2,2.6z"/>
<path class="st8" d="M22.5,2.8l-0.5-0.2l-1.5,4.8L22.5,2.8z"/>
<path class="st0" d="M25.7,14.5c0,0-1.9,0.7-6.9,0.7c-5.1,0-6.9-0.6-6.9-0.6C9.2,13.9,8.2,12,8.2,12C8,11.7,7.9,11.5,8,11.3
	c-0.5,0.2-0.8,0.6-0.3,1.2c0,0,1,1.9,3.6,2.5c0,0,1.9,0.6,6.9,0.6c5.1,0,6.9-0.7,6.9-0.7c1.7-0.4,2.6-1.2,3.1-1.7
	C27.7,13.7,26.9,14.2,25.7,14.5z"/>
<path class="st4" d="M27.3,20.6c0.1,0.2,0.1,0.4,0.1,0.6c0,0.2,0,0.4-0.1,0.6c0,0.1-0.1,0.2-0.1,0.3c0,0.1-0.1,0.2-0.2,0.3
	c-0.1,0.2-0.3,0.3-0.5,0.4c0.2-0.1,0.3-0.3,0.4-0.4c0.1-0.2,0.2-0.4,0.2-0.5c0.1-0.2,0.1-0.4,0.1-0.6C27.3,21,27.3,20.8,27.3,20.6z"
	/>
<path class="st4" d="M9.1,20.6c0,0.2,0,0.4,0,0.6c0,0.2,0,0.4,0.1,0.6c0.1,0.2,0.1,0.4,0.2,0.5c0.1,0.2,0.3,0.3,0.4,0.4
	c-0.2-0.1-0.4-0.2-0.5-0.4c-0.1-0.1-0.1-0.2-0.2-0.3c0-0.1-0.1-0.2-0.1-0.3C9,21.6,8.9,21.4,9,21.2C9,21,9,20.8,9.1,20.6z"/>
<path class="st9" d="M16,19.7c0,0-0.7,0.8-1.5,0.8c-0.8,0-1.5-0.8-1.5-0.8s0.7-0.8,1.5-0.8C15.3,18.8,16,19.7,16,19.7z"/>
<path class="st9" d="M23.4,19.7c0,0-0.7,0.8-1.5,0.8c-0.9,0-1.5-0.8-1.5-0.8s0.7-0.8,1.5-0.8C22.7,18.8,23.4,19.7,23.4,19.7z"/>
<path class="st10" d="M14.4,19c-0.2,0-0.5,0-0.7,0.1c-0.1,0.1-0.1,0.3-0.1,0.4c0,0.2,0,0.3,0.1,0.4c0.1,0.1,0.2,0.3,0.3,0.3
	c0.1,0.1,0.3,0.1,0.4,0.1c0.2,0,0.3,0,0.4-0.1s0.2-0.2,0.3-0.3c0.1-0.1,0.1-0.3,0.1-0.4c0-0.2-0.1-0.3-0.1-0.4
	C14.9,19,14.7,19,14.4,19z"/>
<path class="st9" d="M14.6,19.7C14.6,19.7,14.6,19.8,14.6,19.7c0,0.1-0.1,0.1-0.1,0.2c0,0-0.1,0-0.1,0c0,0-0.1,0-0.1,0
	c0,0,0-0.1,0-0.1c0,0,0-0.1,0-0.1c0,0,0-0.1,0.1-0.1c0,0,0.1,0,0.1,0c0,0,0.1,0,0.1,0C14.6,19.6,14.6,19.7,14.6,19.7z"/>
<path class="st10" d="M21.8,19c-0.2,0-0.5,0-0.7,0.1C21,19.2,21,19.4,21,19.5c0,0.2,0,0.3,0.1,0.4c0.1,0.1,0.2,0.3,0.3,0.3
	c0.1,0.1,0.3,0.1,0.4,0.1c0.2,0,0.3,0,0.4-0.1c0.1-0.1,0.2-0.2,0.3-0.3c0.1-0.1,0.1-0.3,0.1-0.4c0-0.2-0.1-0.3-0.1-0.4
	C22.3,19,22.1,19,21.8,19z"/>
<path class="st9" d="M22,19.7C22,19.7,22,19.8,22,19.7c0,0.1-0.1,0.1-0.1,0.2c0,0-0.1,0-0.1,0c0,0-0.1,0-0.1,0c0,0,0-0.1,0-0.1
	c0,0,0-0.1,0-0.1s0-0.1,0.1-0.1c0,0,0.1,0,0.1,0c0,0,0.1,0,0.1,0C22,19.6,22,19.7,22,19.7z"/>
<path d="M12.9,19.7C12.9,19.7,12.8,19.7,12.9,19.7c-0.1,0-0.1-0.1-0.1-0.1c0,0,0-0.1,0-0.1s0-0.1,0.1-0.1c0,0,0.7-0.6,1.6-0.6
	s1.6,0.6,1.6,0.6c0,0,0,0,0,0c0,0,0,0,0,0.1c0,0,0,0,0,0.1s0,0,0,0.1c0,0,0,0,0,0c0,0,0,0-0.1,0c0,0,0,0-0.1,0c0,0,0,0-0.1,0
	c0,0-0.7-0.5-1.4-0.5S13,19.6,13,19.7C13,19.7,12.9,19.7,12.9,19.7z"/>
<path d="M20.3,19.7C20.3,19.7,20.2,19.7,20.3,19.7c-0.1,0-0.1-0.1-0.1-0.1c0,0,0-0.1,0-0.1s0-0.1,0.1-0.1c0,0,0.7-0.6,1.6-0.6
	c0.9,0,1.6,0.6,1.6,0.6c0,0,0,0,0,0c0,0,0,0,0,0.1c0,0,0,0,0,0.1c0,0,0,0,0,0.1c0,0,0,0,0,0c0,0,0,0-0.1,0c0,0,0,0-0.1,0
	c0,0,0,0-0.1,0c0,0-0.7-0.5-1.4-0.5s-1.4,0.5-1.4,0.5C20.4,19.7,20.3,19.7,20.3,19.7z"/>
<path class="st11" d="M24.6,18.2c-0.1,0-0.1-0.2-0.2-0.4c-0.1-0.1-0.2-0.2-0.3-0.2c0,0,0,0,0,0l0,0l0,0l0,0l-0.1,0l-0.1,0
	c0,0-0.1,0-0.1,0c0,0-0.1,0-0.1,0c0,0-0.1,0-0.1,0c0,0-0.1,0-0.2,0c-0.1,0-0.1,0-0.2,0c-0.1,0-0.1,0-0.2,0c-0.2,0-0.5,0-0.7,0.1
	L21,17.8c-0.4,0-0.6,0-0.8,0c-0.2,0-0.3-0.1-0.3-0.2c0-0.1,0.1-0.2,0.2-0.3c0.3-0.1,0.5-0.2,0.8-0.2l0.3,0l0.2,0l0.2,0
	c0.2,0,0.4,0,0.7,0c0.2,0,0.5,0,0.7,0c0.1,0,0.1,0,0.2,0c0.1,0,0.1,0,0.2,0c0.1,0,0.1,0,0.2,0c0.1,0,0.1,0,0.2,0c0.1,0,0.1,0,0.2,0
	c0.1,0,0.1,0,0.2,0.1l0.1,0l0,0l0,0h0l0,0l0,0l0,0l0,0l0,0c0,0,0.1,0,0.1,0.1c0.2,0.1,0.3,0.3,0.3,0.5c0,0.1,0.1,0.2,0,0.4
	C24.7,18.1,24.7,18.2,24.6,18.2C24.6,18.2,24.6,18.2,24.6,18.2C24.6,18.2,24.6,18.2,24.6,18.2z"/>
<path class="st11" d="M11.6,18.2c0.1,0,0.1-0.2,0.2-0.4c0.1-0.1,0.2-0.2,0.3-0.2c0,0,0,0,0,0l0,0l0,0l0,0l0.1,0l0.1,0
	c0,0,0.1,0,0.1,0c0,0,0.1,0,0.1,0c0,0,0.1,0,0.1,0c0,0,0.1,0,0.2,0c0.1,0,0.1,0,0.2,0c0.1,0,0.1,0,0.2,0c0.2,0,0.5,0,0.7,0.1
	l1.2,0.1c0.4,0,0.6,0,0.8,0c0.2,0,0.3-0.1,0.3-0.2c0-0.1-0.1-0.2-0.2-0.3c-0.3-0.1-0.5-0.2-0.8-0.2L15,17l-0.2,0l-0.2,0
	c-0.2,0-0.4,0-0.7,0c-0.2,0-0.5,0-0.7,0c-0.1,0-0.1,0-0.2,0c-0.1,0-0.1,0-0.2,0c-0.1,0-0.1,0-0.2,0c-0.1,0-0.1,0-0.2,0
	c-0.1,0-0.1,0-0.2,0c-0.1,0-0.1,0-0.2,0.1l-0.1,0l0,0l0,0h0l0,0l0,0l0,0l0,0l0,0c0,0-0.1,0-0.1,0.1c-0.2,0.1-0.3,0.3-0.3,0.5
	c0,0.1-0.1,0.2,0,0.4C11.6,18.1,11.6,18.2,11.6,18.2C11.6,18.2,11.6,18.2,11.6,18.2C11.6,18.2,11.6,18.2,11.6,18.2z"/>
<path class="st12" d="M19.2,23.5c0,0.4-0.5,0.4-1.1,0.4s-1.1,0-1.1-0.4c0-0.4,0.5-1,1.1-1S19.2,23.1,19.2,23.5z"/>
<path class="st12" d="M18.7,23.1c0.2,1-0.3,1.1-0.6,1.1s-0.8-0.1-0.6-1.1c0.2-1.1,0.5-2.7,0.6-2.7S18.6,22.1,18.7,23.1z"/>
</svg>
