<svg id="Layer_1" data-name="Layer 1" xmlns="http://www.w3.org/2000/svg" viewBox="0 0 690.31 695.63"><defs><style>.cls-1,.cls-8{fill:#fff;}.cls-2{fill:#0f1839;}.cls-3{fill:#fb9319;}.cls-4{fill:#edac77;}.cls-5{fill:#efbe8e;}.cls-6{fill:#26120b;}.cls-7{fill:#2b0d04;}.cls-8,.cls-9{fill-rule:evenodd;}.cls-10{fill:#eaa96e;}</style></defs><path class="cls-1" d="M267,765.46" transform="translate(-322.69 -24.29)"/><path class="cls-2" d="M667.48,533.85c-47.1-15.81-79.28-47.7-79.28-47.7l-44.73,7.91c.26.52.54,1.05.81,1.57l-26.7,12.11L506.1,511.2l-30.47,9.37L432,533.85a189.66,189.66,0,0,0-81.42,49.93l-5.07,5.28a51.56,51.56,0,0,0-13.6,26.19c-2.12,11.16-5.33,83.88-9.23,104.67H667.56l-.08-186.09Zm-26.67,31.31c6.55-11.27,15.31-22.85,26.66-31.3C667,534.75,655.92,557.66,640.81,565.16Z" transform="translate(-322.69 -24.29)"/><path class="cls-2" d="M1003.77,615.25a51.57,51.57,0,0,0-13.61-26.19,217.59,217.59,0,0,0-93.49-57.34l-36.61-11.15-30.49-9.37-11.47-3.46-37.28-16.91-32.06-14.48-36.4,89.22c-23.58,11.53-44.17-31.74-44.17-31.74l-.06,186.09H1013C1009.09,699.13,1005.88,626.41,1003.77,615.25Z" transform="translate(-322.69 -24.29)"/><path class="cls-1" d="M593.36,494.53s83.82,55.47,183.71-.95l-22.81-9.9s-74.22,24.24-140.51-3Z" transform="translate(-322.69 -24.29)"/><path class="cls-1" d="M740,719.92l18.93-105.39-82.35-90.21H665.49s-86.6,89.3-86,95.79l18.7,99.81Z" transform="translate(-322.69 -24.29)"/><path class="cls-2" d="M653.29,584.31,635.36,719.92h67.46L684.89,584.31a17.5,17.5,0,0,1,1.71-12.22l11.11-20.52A3.29,3.29,0,0,0,697,548L684.1,535.46c-2.9-2.84-6.4-5.5-8.1-9.22-1.2-2.67-4.52-8.63-8.38-6.1-3.38,2.22-4.51,5.69-6.7,8.64s-5.59,5.46-8.22,8c-3.82,3.72-7.64,7.46-11.47,11.18a3.29,3.29,0,0,0-.75,3.59l11.11,20.52A17.5,17.5,0,0,1,653.29,584.31Z" transform="translate(-322.69 -24.29)"/><path class="cls-1" d="M671.32,517a3.2,3.2,0,0,1-4.45,0l-82.72-78.64-18.49,57.08,35.75,124.7,65-96.33a3.22,3.22,0,0,1,5.42,0l65,96.33,35.74-124.7L754,438.33Z" transform="translate(-322.69 -24.29)"/><path class="cls-3" d="M787.31,719.92,856.13,583.5l-72-19.3,79-25.87c-11.34-13.38-18.67-19.63-36-32-32-18.69-53.7-27.87-60.77-30L730.16,608.23,710.92,719.92Z" transform="translate(-322.69 -24.29)"/><path class="cls-3" d="M482.09,583.5l68.37,136.42h76.2L596.83,575.7l-25-99.35c-7.06,2-36.23,8.27-60.78,27.63-13.93,10-24.21,20.34-36,34.35l79,25.87Z" transform="translate(-322.69 -24.29)"/><polygon class="cls-4" points="428.59 443.16 343.71 499.43 261.42 443.16 261.42 359.77 428.59 359.77 428.59 443.16"/><path class="cls-5" d="M775.24,335s76.1-7.18,63.39-60.34-89.52,2.94-89.52,2.94Z" transform="translate(-322.69 -24.29)"/><path class="cls-5" d="M561.51,335s-76.1-7.18-63.39-60.34,89.52,2.94,89.52,2.94Z" transform="translate(-322.69 -24.29)"/><path class="cls-5" d="M809.09,310.73c-1.93,27.22-17.53,52.81-31.88,73.09-37.64,53.11-52.71,76-108,76-53.54,0-61.21-13.61-102.59-56.3-20.75-21.4-32.07-49.63-40.12-74.86l-3.07-27.85c-2.89-24.44-2.81-59.21-2.81-59.21.87-50.41,5.46-102,28.83-133,27.84-37,73.89-46.42,117.54-46.42,39.66,0,84.38,9.59,111.45,42,26.32,31.51,30.82,79,31.59,129.92,0,1.93,0,3.9.05,5.85C810.08,239.93,810,300.37,809.09,310.73Z" transform="translate(-322.69 -24.29)"/><path class="cls-6" d="M668.4,358.76c-8.47,8.15-18.93,11-30,12.21a38,38,0,0,1-10.49-.22c-10.37-1.75-18.66-11-20-22l1.11,1.59c4.48,6.4,10.1,8.54,17.24,5.34,5.83-2.61,11.15-6.37,16.7-9.63,2.87-1.69,5.63-3.63,8.64-5.05a14.78,14.78,0,0,1,10.5-1.21c2.2.65,4.21,2,6.58,3.11,6.5-5.77,13.62-3.89,20.59.11,3.38,1.94,6.35,4.61,9.72,6.6A82,82,0,0,0,711.38,356c6.7,2.52,11.85.6,16.07-5.18.43-.58.83-1.18,1.35-1.94-1.69,11.68-10.06,20.86-20.53,22a53.66,53.66,0,0,1-35.51-8.49A45.07,45.07,0,0,1,668.4,358.76Z" transform="translate(-322.69 -24.29)"/><path class="cls-7" d="M828.7,240.43c-2.75,11.14-4.87,22.29-5.36,33.43a5,5,0,0,1-4.89,4.77l-11.31.22a72.15,72.15,0,0,1-.07-8,201.38,201.38,0,0,0-.8-24.06c-2.82-37.46,14.43-160.31-63.56-123.9-11.46,5.34-21.65,13.08-32.87,18.9-32.38,16.76-73.24,15.91-104.9-2.19-17.64-10.07-45.57-33-65-13.39-12.68,12.83-9.12,47.8-10.67,64-2.13,22.43-5,42.82-3.89,65.83.45,9.3,2.57,18.35,2.53,27.73-25,8.48-18.84-18.81-23.17-33.24-7.2-24-8.36-45.73-8.9-70.1-.51-23.83-8.08-50.09.13-73.54C512.1,61,575.25,37.24,618.81,29c47-8.92,98.24-4.91,143.47,10.54C781,45.9,809.79,55.88,822.61,72s13.38,45.65,16.44,66C844.15,172.1,836.83,207.41,828.7,240.43Z" transform="translate(-322.69 -24.29)"/><path class="cls-7" d="M551.06,371.2l64.23,62.73A39,39,0,0,0,642.54,445h51.77a39,39,0,0,0,28.33-12.2L781,371.2l2.72,3.19S739.21,445.44,715,451.2c0,0-49.37,21.24-94.05.68,0,0-34.06-15.69-74.33-75.35Z" transform="translate(-322.69 -24.29)"/><path class="cls-8" d="M630.28,235.35S619,249.14,605.16,249.14s-25.11-13.79-25.11-13.79,11.24-13.79,25.11-13.79S630.28,235.35,630.28,235.35Z" transform="translate(-322.69 -24.29)"/><path class="cls-8" d="M751.31,235.35s-11.24,13.79-25.12,13.79-25.12-13.79-25.12-13.79,11.25-13.79,25.12-13.79S751.31,235.35,751.31,235.35Z" transform="translate(-322.69 -24.29)"/><path class="cls-9" d="M605.16,223.79A33.15,33.15,0,0,0,593.78,226a13.8,13.8,0,1,0,22.78,0A33.31,33.31,0,0,0,605.16,223.79Z" transform="translate(-322.69 -24.29)"/><path class="cls-8" d="M607.81,235.48a2.65,2.65,0,1,1-2.65-2.65A2.65,2.65,0,0,1,607.81,235.48Z" transform="translate(-322.69 -24.29)"/><path class="cls-9" d="M725.9,223.79A33.21,33.21,0,0,0,714.51,226a13.81,13.81,0,1,0,22.78,0A33.3,33.3,0,0,0,725.9,223.79Z" transform="translate(-322.69 -24.29)"/><path class="cls-8" d="M728.54,235.48a2.65,2.65,0,1,1-2.65-2.65A2.65,2.65,0,0,1,728.54,235.48Z" transform="translate(-322.69 -24.29)"/><path d="M580.27,235.35a2.55,2.55,0,0,1-1.64-4.51c.48-.4,12-9.92,26.53-9.92s26.06,9.52,26.54,9.92a2.56,2.56,0,1,1-3.28,3.92c-.1-.09-10.64-8.74-23.26-8.74s-23.15,8.65-23.25,8.74A2.54,2.54,0,0,1,580.27,235.35Z" transform="translate(-322.69 -24.29)"/><path d="M701,235.35a2.55,2.55,0,0,1-1.64-4.51c.48-.4,12-9.92,26.54-9.92s26.05,9.52,26.53,9.92a2.56,2.56,0,1,1-3.28,3.92c-.1-.09-10.64-8.74-23.25-8.74s-23.16,8.65-23.26,8.74A2.54,2.54,0,0,1,701,235.35Z" transform="translate(-322.69 -24.29)"/><path class="cls-10" d="M686.05,308.24c0,6.38-7.61,6.74-17,6.74s-17-.36-17-6.74,7.6-16.34,17-16.34S686.05,301.87,686.05,308.24Z" transform="translate(-322.69 -24.29)"/><path class="cls-10" d="M678.85,302.13c2.42,16.34-4.38,17.55-9.78,17.55s-12.08-1.19-9.78-17.55c2.39-17,7.36-42.56,9.78-42.56S676.33,285.15,678.85,302.13Z" transform="translate(-322.69 -24.29)"/><path class="cls-7" d="M771.06,211.81c-.92-.11-1.08-2.88-3.57-5.75a15.15,15.15,0,0,0-5.14-3.92,7.3,7.3,0,0,0-.75-.32l-.19-.08-.28-.1-.55-.2-.87-.23-1-.26c-.69-.1-1.36-.25-2.08-.34s-1.43-.18-2.21-.18-1.54-.07-2.35,0-1.63,0-2.48.07-1.7.12-2.55.16-1.89.14-2.74.23c-3.68.36-7.42.7-11.11,1l-20.33,2c-5.84.48-10.48.37-13.6-.44s-4.81-2.13-5-3.67,1.12-3.25,4-4.77a35.14,35.14,0,0,1,13.35-3.43l4.81-.42,2.55-.2,2.62-.12c3.55-.14,7.28-.3,11.07-.34s7.64.06,11.42.15c1,0,1.88.07,2.83.11s2,.1,2.94.21,1.95.18,2.93.33,2,.31,2.91.52,1.92.49,2.84.74,1.84.66,2.73,1l1.28.62.63.32.31.15.08,0,.13.06h0l0,0,.12.08.5.32.24.15.31.21c.41.28.86.57,1.19.85a17.47,17.47,0,0,1,5.6,7.4,10.7,10.7,0,0,1,.65,6.09c-.09.35-.19.66-.28.92a4.41,4.41,0,0,1-.36.63C771.49,211.7,771.27,211.84,771.06,211.81Z" transform="translate(-322.69 -24.29)"/><path class="cls-7" d="M560,211.81c.92-.11,1.08-2.88,3.57-5.75a15.15,15.15,0,0,1,5.14-3.92,6.58,6.58,0,0,1,.76-.32l.18-.08.28-.1.55-.2.87-.23,1-.26c.69-.1,1.36-.25,2.08-.34s1.43-.18,2.21-.18,1.54-.07,2.35,0,1.63,0,2.48.07,1.7.12,2.55.16,1.89.14,2.74.23c3.68.36,7.43.7,11.11,1l20.33,2c5.84.48,10.48.37,13.6-.44s4.81-2.13,5-3.67-1.12-3.25-4-4.77a35.14,35.14,0,0,0-13.35-3.43l-4.81-.42-2.55-.2-2.62-.12c-3.55-.14-7.28-.3-11.07-.34s-7.64.06-11.42.15c-1,0-1.88.07-2.83.11s-2,.1-2.94.21-2,.18-2.93.33-1.95.31-2.91.52-1.92.49-2.84.74-1.84.66-2.73,1l-1.28.62-.63.32-.31.15-.08,0-.13.06h0l0,0-.12.08-.5.32-.24.15-.31.21c-.41.28-.86.57-1.19.85a17.47,17.47,0,0,0-5.6,7.4,10.7,10.7,0,0,0-.65,6.09c.09.35.19.66.28.92a4.41,4.41,0,0,0,.36.63C559.57,211.7,559.79,211.84,560,211.81Z" transform="translate(-322.69 -24.29)"/></svg>